Coordinates
version=1
nRows=16
nColumns=36
inDegrees=yes

Units are S.I. units (second, meters, Newtons, ...)
If the header above contains a line with 'inDegrees', this indicates whether rotational values are in degrees (yes) or radians (no).

endheader
time	pelvis_tilt	pelvis_list	pelvis_rotation	pelvis_tx	pelvis_ty	pelvis_tz	hip_flexion_r	hip_adduction_r	hip_rotation_r	knee_angle_r	knee_angle_r_beta	ankle_angle_r	subtalar_angle_r	mtp_angle_r	hip_flexion_l	hip_adduction_l	hip_rotation_l	knee_angle_l	knee_angle_l_beta	ankle_angle_l	subtalar_angle_l	mtp_angle_l	lumbar_extension	lumbar_bending	lumbar_rotation	arm_flex_r	arm_add_r	arm_rot_r	elbow_flex_r	pro_sup_r	arm_flex_l	arm_add_l	arm_rot_l	elbow_flex_l	pro_sup_l
      0.34000000	      0.27071690	     -3.44623187	      3.59570849	      0.28527113	      1.04426858	     -0.17591342	     -1.98370326	      8.69193535	     -5.84292714	      0.80345922	      0.01402301	      3.65068075	      4.70008921	     -6.35217018	     27.85219390	     -5.74646913	     -2.97546502	     45.00832401	      0.78554344	      3.45322399	     -9.35709082	     -6.35217018	    -13.92149765	     -9.58389544	      2.40744822	     -4.40167240	     -8.35180098	     -6.78130329	     48.85193935	    109.48320167	     -7.65526367	     -4.95782112	    -25.23063243	     46.41888976	     94.77775295
      0.35000000	      0.56735747	     -3.47795270	      3.20410551	      0.29778968	      1.04381350	     -0.17505428	     -3.13232926	      8.80965009	     -5.65442913	      0.81145199	      0.01416251	      4.60360444	      5.11255022	     -6.38350922	     27.61514235	     -6.04063966	     -3.56587510	     41.25084563	      0.71996308	      2.37824287	     -9.66946941	     -6.38350922	    -14.33128690	    -10.21119574	      3.46322820	     -3.94451569	     -9.02346165	     -6.59637766	     50.40080705	    109.25423596	     -7.63329010	     -4.64871921	    -25.81143258	     44.30848592	     94.51969630
      0.36000000	      0.50623449	     -3.56283198	      2.82232767	      0.31024983	      1.04260635	     -0.17422811	     -3.87766075	      8.94786128	     -5.26108103	      0.84373809	      0.01472601	      5.38708378	      5.26885210	     -6.40212265	     27.70872636	     -6.36310139	     -4.09485277	     37.42379836	      0.65316850	      1.56711179	     -9.16711005	     -6.40212265	    -14.31414308	    -10.80816640	      4.19093755	     -3.31899702	     -9.61039100	     -6.45773929	     51.76657004	    109.07615603	     -8.05853169	     -4.40389582	    -26.32047764	     42.65642139	     94.27655310
      0.37000000	      0.60578344	     -3.71921334	      2.51785909	      0.32281993	      1.04140060	     -0.17358462	     -4.79880638	      9.15092791	     -5.06582829	      0.87524796	      0.01527596	      6.21923009	      5.73932747	     -6.46716799	     27.52675574	     -6.69136775	     -4.51282946	     33.41888232	      0.58326953	      0.50568806	     -9.13313316	     -6.46716799	    -14.50722244	    -11.29615556	      5.10352556	     -2.96945955	    -10.20631411	     -6.75033944	     53.43302176	    108.67984933	     -8.24577658	     -4.23088171	    -26.54298723	     40.73962308	     94.16187849
      0.38000000	      0.41687209	     -3.95691009	      2.23840317	      0.33527947	      1.03956526	     -0.17288894	     -5.41292746	      9.43950231	     -4.60987155	      0.89588455	      0.01563614	      6.89765044	      5.76532747	     -6.48180132	     27.65718647	     -7.10686822	     -4.88796633	     29.46593255	      0.51427754	     -0.03450907	     -8.04180338	     -6.48180132	    -14.38555354	    -11.75414040	      5.62460866	     -2.35441637	    -10.79483921	     -6.54573339	     54.73899966	    108.55847672	     -8.76618185	     -4.01013419	    -27.04698265	     39.32926591	     93.93107927
      0.39000000	      0.31881543	     -4.21807780	      2.02264527	      0.34794229	      1.03761461	     -0.17231418	     -6.12597325	      9.74718643	     -4.27112154	      0.94773629	      0.01654112	      7.60797459	      5.82435074	     -6.49600851	     27.62700035	     -7.51974850	     -5.20336233	     25.50045234	      0.44506685	     -0.58854282	     -6.82812876	     -6.49600851	    -14.31444093	    -12.13956443	      6.16438708	     -1.81349146	    -11.44212492	     -6.41978171	     56.10117519	    108.43106991	     -9.27493954	     -3.91735465	    -27.58239807	     37.87740759	     93.69581383
      0.40000000	      0.30375466	     -4.44631745	      1.88914046	      0.36063961	      1.03561752	     -0.17203414	     -6.92587819	     10.01363488	     -4.12619770	      0.99687443	      0.01739874	      8.40398956	      5.92943237	     -6.51371227	     27.46912096	     -7.85259921	     -5.52808440	     21.54601039	      0.37604882	     -1.11473816	     -5.36757154	     -6.51371227	    -14.40193334	    -12.54246236	      6.66576175	     -1.38759001	    -12.10737342	     -6.39650526	     57.53072796	    108.29591345	     -9.64452359	     -3.76599473	    -28.07975624	     36.37802682	     93.48097706
      0.41000000	      0.04148103	     -4.77727031	      1.81328045	      0.37331867	      1.03306354	     -0.17184034	     -7.43659040	     10.38037986	     -3.92051813	      1.08876517	      0.01900254	      9.07480950	      6.07580916	     -6.52714220	     27.58818850	     -8.21601270	     -5.43607803	     17.72877110	      0.30942543	     -1.45287300	     -3.70394872	     -6.52714220	    -14.20693450	    -12.82929159	      6.97653137	     -0.92874260	    -12.67753766	     -6.41835690	     58.87708473	    108.17199379	    -10.25816687	     -3.64434123	    -28.44280434	     35.27340261	     93.31216254
      0.42000000	      0.08369716	     -5.01131544	      1.79855795	      0.38633352	      1.03079738	     -0.17187543	     -8.26483977	     10.62971839	     -4.07979662	      1.22925217	      0.02145450	      9.93681981	      6.52776341	     -6.56219575	     27.31636431	     -8.49848880	     -5.52091295	     14.02781094	      0.24483149	     -1.63605868	     -1.68444988	     -6.56219575	    -14.36153906	    -13.19817701	      7.42691516	     -0.70894512	    -13.23611999	     -6.69622483	     60.42500908	    107.98181367	    -10.66675793	     -3.59798464	    -28.75479560	     33.98392195	     93.22792863
      0.43000000	     -0.12513677	     -5.31038999	      1.78657621	      0.39925976	      1.02802236	     -0.17197109	     -8.77423007	     10.94948610	     -4.05619714	      1.44799657	      0.02527231	     10.70614001	      6.60266645	     -6.58304082	     27.32647746	     -8.81054969	     -5.25166481	     10.55108420	      0.18415116	     -1.79124925	      0.19569754	     -6.58304082	    -14.22351989	    -13.48533434	      7.67603917	     -0.36760683	    -13.83203533	     -6.74419745	     61.72465649	    107.88676628	    -11.33538610	     -3.50975995	    -29.02825093	     33.10307252	     93.14340179
      0.44000000	     -0.34764883	     -5.62441315	      1.79109110	      0.41233521	      1.02510973	     -0.17220140	     -9.24362079	     11.27557207	     -4.03657465	      1.72463668	      0.03010059	     11.45465249	      6.66271606	     -6.59969408	     27.38375691	     -9.14631574	     -4.88203297	      7.45181125	      0.13005864	     -1.76915159	      1.89856390	     -6.59969408	    -14.06192292	    -13.75437259	      7.90954314	     -0.09388367	    -14.39059657	     -6.80758724	     62.94800208	    107.80514062	    -12.04965054	     -3.43081538	    -29.27307266	     32.42568858	     93.06727746
      0.45000000	     -0.65743467	     -5.97466647	      1.69550793	      0.42545417	      1.02198030	     -0.17236595	     -9.56142026	     11.61218510	     -3.85825252	      2.13108518	      0.03719445	     12.01167766	      6.69356175	     -6.60773435	     27.60144522	     -9.57652815	     -4.48521397	      4.89806262	      0.08548732	     -1.49546147	      3.17991799	     -6.60773435	    -13.77862677	    -13.99352497	      8.04622288	      0.26946117	    -14.84854998	     -6.88503129	     64.09150094	    107.77654548	    -12.92459080	     -3.32876769	    -29.45893763	     31.91065841	     92.99706505
      0.46000000	     -0.78845223	     -6.24522866	      1.66381991	      0.43878664	      1.01904417	     -0.17279596	    -10.06445891	     11.86446007	     -3.80911700	      2.56503110	      0.04476824	     12.72888798	      6.63115185	     -6.61630025	     27.69195198	     -9.92505897	     -4.23001487	      2.89180020	      0.05047143	     -1.14159358	      4.27395974	     -6.61630025	    -13.69421306	    -14.27824112	      8.28478626	      0.43740946	    -15.37369277	     -6.98816526	     65.22998071	    107.74678712	    -13.66706797	     -3.23925174	    -29.65614858	     31.44866886	     92.93265612
      0.47000000	     -0.74957231	     -6.46245780	      1.61178506	      0.45235739	      1.01631755	     -0.17330890	    -10.72730693	     12.04127825	     -3.90533761	      3.06883877	      0.05356134	     13.59462409	      6.77169588	     -6.63569765	     27.77686038	    -10.27616115	     -4.41597038	      1.76315611	      0.03077288	     -0.44331445	      5.29470285	     -6.63569765	    -13.80975075	    -14.62336405	      8.74007919	      0.24985116	    -15.87287727	     -7.44358267	     66.68469286	    107.67934760	    -14.25152920	     -3.17085599	    -29.86806037	     31.04188107	     92.91541524
      0.48000000	     -0.84757495	     -6.67845039	      1.49525920	      0.46590299	      1.01349942	     -0.17380615	    -11.19335365	     12.19458312	     -3.80229392	      3.63496491	      0.06344211	     13.97006509	      6.68197688	     -6.64129403	     28.10061743	    -10.63232698	     -4.54717030	      1.31697666	      0.02298558	      0.14906711	      5.37005917	     -6.64129403	    -13.73877812	    -14.96762530	      8.87236244	      0.44695783	    -16.16620954	     -7.69802875	     67.55445243	    107.69433150	    -15.08185254	     -3.09834699	    -29.96818592	     30.72046343	     92.89444828
      0.49000000	     -0.85614457	     -6.79090348	      1.34663532	      0.47964612	      1.01089320	     -0.17442650	    -11.71554346	     12.21677828	     -3.66076523	      4.33889541	      0.07572801	     14.48634771	      6.49884748	     -6.64646656	     28.29195940	    -10.90017139	     -4.68985946	      1.35098593	      0.02357915	      0.70813156	      5.12616710	     -6.64646656	    -13.73991132	    -15.41652726	      9.04691119	      0.49434352	    -16.46542828	     -7.95534042	     68.52451171	    107.71392188	    -15.83774352	     -3.04877697	    -30.09074913	     30.45857842	     92.86985716
